<svg xmlns="http://www.w3.org/2000/svg" width="48" height="48" fill="none" viewBox="0 0 48 48">
  <defs>
    <linearGradient id="a" x1="4.74626" x2="70.6068" y1="8.63622" y2="59.748" gradientUnits="userSpaceOnUse">
      <stop stop-color="#955AE0"/>
      <stop offset="1" stop-color="#4D67F0"/>
    </linearGradient>
  </defs>
  <path fill="url(#a)" d="M3.72 8.16C8.04 5.7 13.98 4.5 19.08 4.5c14.94 0 24.42 6.96 24.42 16.38 0 7.5-6.54 12.12-15.24 12.12-7.02 0-12.24-2.58-12.24-6 0-3.24 3.3-4.8 7.98-3l1.2-3.66C17.94 18 11.94 21.3 11.94 27s7.08 9.78 16.56 9.78c11.28 0 19.5-6.24 19.5-15.9C48 8.82 36.6 0 19.08 0c-5.64 0-12 1.44-17.22 4.26l1.86 3.9Zm40.56 31.68c-4.32 2.46-10.26 3.66-15.36 3.66-14.94 0-24.42-6.96-24.42-16.38C4.5 19.62 11.04 15 19.74 15c7.02 0 12.24 2.58 12.24 6 0 3.24-3.3 4.8-7.98 3l-1.2 3.66C30.06 30 36.06 26.7 36.06 21s-7.08-9.78-16.56-9.78C8.22 11.22 0 17.46 0 27.12 0 39.18 11.4 48 28.92 48c5.64 0 12-1.44 17.22-4.26l-1.86-3.9Z"/>
</svg>
