<?xml version="1.0" encoding="UTF-8"?>
<svg height="60" viewBox="0 0 60 60" width="60" xmlns="http://www.w3.org/2000/svg"
     xmlns:xlink="http://www.w3.org/1999/xlink">
    <linearGradient id="a" gradientTransform="matrix(1 0 0 -1 0 72)" gradientUnits="userSpaceOnUse" x1="17.65714"
                    x2="60" y1="22.5" y2="22.5">
        <stop offset=".194" stop-color="#00daf0"/>
        <stop offset=".903" stop-color="#247ce6"/>
    </linearGradient>
    <linearGradient id="b" x1="1.11429" x2="32.91428" xlink:href="#a" y1="57.08572" y2="57.08572"/>
    <linearGradient id="c" gradientTransform="matrix(1 0 0 -1 0 72)" gradientUnits="userSpaceOnUse" x1="39.31943"
                    x2="9.59458" y1="10.09339" y2="51.57739">
        <stop offset=".091" stop-color="#1ddf93"/>
        <stop offset=".484" stop-color="#00daf0"/>
        <stop offset=".903" stop-color="#247ce6"/>
    </linearGradient>
    <path d="m50.74285 47.14285 9.25715-24.59999-28.02857-6.25715-3.68572 10.45715z" fill="#247ce6"/>
    <path d="m60 48.08571-14.14286 11.91429-28.2-7.28572 7.54286-13.71428z" fill="url(#a)"/>
    <path d="m8.31428 29.82857-7.2-20.57143 31.8-9.25714-2.57143 26.57143z" fill="url(#b)"/>
    <path d="m52.37142 34.71428-8.91428-15.25714.17143-.08571-10.71429-19.37143-32.91428 35.57143v24.42857l59.82857-11.91429z"
          fill="url(#c)"/>
    <path d="m11.48571 11.48571h37.02857v37.02857h-37.02857z"/>
    <g fill="#fff">
        <path d="m14.91428 41.57143h13.88572v2.31428h-13.88572z"/>
        <path d="m21 16.28571h3.08571l6.51429 15.34286h-3.51429l-1.37143-3.42857h-6.42857l-1.37143 3.42857h-3.42857zm3.51428 8.91429-2.05714-4.97143-2.05714 4.97143z"/>
        <path d="m29.74286 24.08571a7.88873 7.88873 0 0 1 8.05714-8.05714 7.84089 7.84089 0 0 1 6.08571 2.4l-2.14286 2.48571a5.533 5.533 0 0 0 -3.94285-1.71428 4.56434 4.56434 0 0 0 -4.45715 4.8 4.58653 4.58653 0 0 0 4.45715 4.88571 5.37746 5.37746 0 0 0 4.02857-1.8l2.14285 2.14286a7.88691 7.88691 0 0 1 -6.34285 2.74286 7.75845 7.75845 0 0 1 -7.88572-7.88572"/>
    </g>
</svg>