<svg xmlns="http://www.w3.org/2000/svg" width="64" height="64" fill="none" viewBox="0 0 64 64">
  <defs>
    <linearGradient id="a" x1="56.3293" x2="2.87497" y1="-.39187" y2="24.3916" gradientUnits="userSpaceOnUse">
      <stop offset=".1" stop-color="#3BEA62"/>
      <stop offset=".59" stop-color="#F0EB18"/>
    </linearGradient>
    <linearGradient id="b" x1="4.06843" x2="62.664" y1="4.32252" y2="62.9181" gradientUnits="userSpaceOnUse">
      <stop offset=".26" stop-color="#F0EB18"/>
      <stop offset=".65" stop-color="#087CFA"/>
    </linearGradient>
  </defs>
  <path fill="#3BEA62" d="M57.9994 16.4499V4.19128c0-2.30372-1.8869-4.161209-4.1906-4.124334L42.7659.243198c-1.1813.01875-2.2975.543121-3.0663 1.439982L6.99315 39.8415C6.35253 40.589 6 41.5415 6 42.5258V53.875C6 56.1531 7.84685 58 10.125 58h11.003c1.1894 0 2.3212-.5137 3.1043-1.4087l32.7465-37.4246c.6581-.7518 1.0206-1.7168 1.0206-2.7162v-.0006Z"/>
  <path fill="url(#a)" d="M57.9999 14.9867V4.12495C57.9999 1.84685 56.1531 0 53.875 0H41.3095c-.2 0-.4.014372-.5981.043746L3.52681 5.49181C1.50121 5.78868 0 7.52616 0 9.57301V24.9703c0 2.2787 1.84751 4.1256 4.12623 4.125l18.50417-.0044c.4256 0 .8487-.0663 1.2537-.1956l31.2453-9.9786c1.7093-.5463 2.8699-2.135 2.8699-3.9294l.0006-.0006Z"/>
  <path fill="url(#b)" d="M64.0002 59.8731V25.746c0-1.6581-.9931-3.1549-2.5206-3.7999L24.0588 6.14876c-.5181-.21875-1.0756-.32938-1.6381-.32438l-18.32855.15C1.82717 5.99313.000977 7.83436.000977 10.0993v17.6654c0 .8057.235597 1.5931.678092 2.2663L21.7876 62.14c.7624 1.1606 2.0581 1.8587 3.4468 1.8587h34.6408c2.2781 0 4.125-1.8469 4.125-4.125v-.0006Z"/>
  <path fill="#000" d="M51.9995 12H12v39.9995h39.9995V12Z"/>
  <path fill="#fff" fill-rule="evenodd" d="M16.9971 16.9922h5.713c1.4219 0 2.6956.3212 3.8212.9643 1.1256.6432 2.0063 1.5344 2.6419 2.6744.6356 1.14.9537 2.4275.9537 3.8643 0 1.4369-.3181 2.7244-.9537 3.8643-.6362 1.14-1.5169 2.0313-2.6419 2.6744-1.1256.6431-2.3993.9644-3.8212.9644h-5.713V16.9922Zm8.028 11.8761c.6719-.4 1.19-.9737 1.5544-1.7206.3643-.7469.5468-1.6306.5468-2.6531 0-1.0225-.1825-1.9062-.5468-2.6531-.3644-.7469-.8825-1.32-1.5544-1.7206-.6719-.4-1.4544-.6-2.3475-.6h-2.7549v9.9468h2.7549c.8931 0 1.6756-.1994 2.3475-.5994Z" clip-rule="evenodd"/>
  <path fill="#fff" d="M32.9998 43.998H17v3h15.9998v-3Z"/>
  <path fill="#fff" d="M35.6044 29.3614V16.9922h-2.9149v15.0061h10.0324v-2.6369h-7.1175Z"/>
</svg>
