<svg xmlns="http://www.w3.org/2000/svg" width="64" height="64" fill="none" viewBox="0 0 64 64">
  <defs>
    <linearGradient id="a" x1="56.3294" x2="2.87438" y1="-.391251" y2="24.3925" gradientUnits="userSpaceOnUse">
      <stop offset=".18" stop-color="#6B57FF"/>
      <stop offset=".54" stop-color="#FF45ED"/>
    </linearGradient>
    <linearGradient id="b" x1="4.0675" x2="62.6638" y1="4.32348" y2="62.9197" gradientUnits="userSpaceOnUse">
      <stop offset=".12" stop-color="#FF45ED"/>
      <stop offset=".92" stop-color="#FC801D"/>
    </linearGradient>
  </defs>
  <path fill="#6B57FF" d="M58 16.4501V4.19132C58 1.88757 56.1131.03007 53.8094.066946l-11.0431.17625C41.585.261946 40.4688.786321 39.7 1.6832L6.99312 39.8413C6.3525 40.5888 6 41.5413 6 42.5257v11.3494c0 2.2781 1.84687 4.125 4.125 4.125h11.0031c1.1894 0 2.3213-.5138 3.1044-1.4088l32.7469-37.425C57.6375 18.4144 58 17.4494 58 16.4501Z"/>
  <path fill="url(#a)" d="M58 14.9875V4.125C58 1.84687 56.1531 0 53.875 0H41.3094c-.2 0-.4.014375-.5981.04375L3.52688 5.49188C1.50125 5.78875 0 7.52625 0 9.57312V24.9706c0 2.2788 1.8475 4.1256 4.12625 4.125l18.50435-.0044c.4256 0 .8488-.0662 1.2538-.1956L55.13 18.9169c1.7094-.5463 2.87-2.135 2.87-3.9294Z"/>
  <path fill="url(#b)" d="M64 59.8747V25.7472c0-1.6581-.9931-3.155-2.5206-3.8L24.0581 6.14973c-.5181-.21875-1.0756-.32937-1.6381-.32437l-18.32875.15C1.82625 5.99348 0 7.83473 0 10.0997v17.6657c0 .8056.235625 1.5931.678125 2.2662L21.7869 62.141c.7625 1.1606 2.0581 1.8587 3.4468 1.8587H59.875c2.2781 0 4.125-1.8468 4.125-4.125Z"/>
  <path fill="#000" d="M52 12H12v40h40V12Z"/>
  <path fill="#fff" d="M32.6677 28.4576c.6644 1.1825 1.5787 2.1119 2.7437 2.7869v-.0025c1.165.6756 2.4657 1.0131 3.9019 1.0131 1.215 0 2.3294-.225 3.3444-.675 1.0144-.45 1.86-1.0806 2.535-1.8919.6756-.8112 1.1275-1.7419 1.3563-2.7925h-3.0657c-.2.5431-.4981 1.0206-.895 1.4313-.3969.4112-.8737.7275-1.4312.9487-.5575.2219-1.165.3325-1.8225.3325-.8863 0-1.6869-.2212-2.4013-.6644-.7144-.4431-1.2737-1.0518-1.6775-1.8275-.4037-.775-.6056-1.6487-.6056-2.6206s.2019-1.845.6056-2.6206c.4038-.775.9631-1.3844 1.6775-1.8275.715-.4431 1.515-.6644 2.4013-.6644.6575 0 1.265.1113 1.8225.3325.5575.2219 1.0343.5381 1.4312.9488.3969.4112.695.8881.895 1.4312h3.0657c-.2288-1.0506-.6813-1.9812-1.3563-2.7925-.6756-.8112-1.5206-1.4419-2.535-1.8919-1.015-.45-2.1294-.675-3.3444-.675-1.4369 0-2.7375.3382-3.9019 1.0132-1.1643.675-2.0793 1.6043-2.7437 2.7868-.6644 1.1825-.9969 2.5025-.9969 3.9607 0 1.4581.3325 2.7781.9969 3.9606Z"/>
  <path fill="#fff" fill-rule="evenodd" d="M16.9971 16.9938h5.7131c1.4219 0 2.6956.3213 3.8212.9644 1.1257.6431 2.0063 1.5344 2.6425 2.6744.6357 1.14.9538 2.4275.9538 3.8644 0 1.4368-.3181 2.7243-.9538 3.8643-.6362 1.14-1.5168 2.0313-2.6425 2.6744-1.1256.6431-2.3993.9644-3.8212.9644h-5.7131V16.9938Zm8.0281 11.8763c.6719-.4 1.19-.9738 1.5544-1.7206.3643-.7469.5468-1.6307.5468-2.6532s-.1825-1.9062-.5468-2.6531c-.3644-.7469-.8825-1.32-1.5544-1.7206-.6719-.4-1.4544-.6-2.3475-.6h-2.755v9.9469h2.755c.8931 0 1.6756-.1994 2.3475-.5994Z" clip-rule="evenodd"/>
  <path fill="#fff" d="M33 44.0001H17v3h16v-3Z"/>
</svg>
