<svg xmlns="http://www.w3.org/2000/svg" width="64" height="64" fill="none" viewBox="0 0 64 64">
  <defs>
    <linearGradient id="a" x1="59.6763" x2="1.08" y1="4.0675" y2="62.6638" gradientUnits="userSpaceOnUse">
      <stop offset=".31" stop-color="#FF45ED"/>
      <stop offset=".83" stop-color="#6B57FF"/>
    </linearGradient>
    <linearGradient id="b" x1="64.3912" x2="39.6074" y1="56.3294" y2="2.875" gradientUnits="userSpaceOnUse">
      <stop offset=".3" stop-color="#FDB60D"/>
      <stop offset=".7" stop-color="#FF45ED"/>
    </linearGradient>
  </defs>
  <path fill="url(#a)" d="M4.125 64h34.1275c1.6581 0 3.155-.9931 3.8-2.5206L57.85 24.0581c.2187-.5181.3294-1.0756.3244-1.6381l-.15-18.32875C58.0056 1.82625 56.1644 0 53.8994 0H36.2337c-.8056 0-1.5931.235625-2.2662.678125L1.85938 21.7869C.69875 22.55 0 23.845 0 25.2337V59.875C0 62.1531 1.84687 64 4.125 64Z"/>
  <path fill="url(#b)" d="M49.0131 58h10.8618c2.2781 0 4.125-1.8469 4.125-4.125V41.3094c0-.2-.0144-.4-.0437-.5981L58.508 3.52688C58.2112 1.50125 56.4737 0 54.4268 0H39.0293c-2.2788 0-4.1256 1.8475-4.125 4.12625l.0044 18.50435c0 .4256.0662.8488.1956 1.2538L45.083 55.13c.5463 1.7094 2.135 2.87 3.9294 2.87h.0007Z"/>
  <path fill="#FDB60D" d="M47.55 58h12.2588c2.3037 0 4.1612-1.8869 4.1243-4.1906L63.9994 43c-.0188-1.1812-.785-2.5312-1.6819-3.3L24.1588 6.99312C23.4113 6.3525 22.4587 6 21.4744 6H10.125C7.84687 6 6 7.84687 6 10.125v11.0031c0 1.1894.51375 2.3213 1.40875 3.1044L44.8338 56.9794C45.5856 57.6375 46.5506 58 47.55 58Z"/>
  <path fill="#000" d="M52 12H12v40h40V12Z"/>
  <path fill="#fff" fill-rule="evenodd" d="M17.0127 16.9941h5.7131c1.4219 0 2.6956.3213 3.8213.9644 1.1256.6431 2.0062 1.5344 2.6425 2.6744.6356 1.14.9537 2.4275.9537 3.8644 0 1.4368-.3181 2.7243-.9537 3.8643-.6363 1.14-1.5169 2.0313-2.6425 2.6744-1.1257.6431-2.3994.9644-3.8213.9644h-5.7131V16.9941Zm8.0281 11.8763c.6719-.4 1.19-.9738 1.5544-1.7206.3644-.7469.5469-1.6307.5469-2.6532s-.1825-1.9062-.5469-2.6531c-.3644-.7469-.8825-1.32-1.5544-1.7206-.6719-.4-1.4544-.6-2.3475-.6h-2.755v9.9469h2.755c.8931 0 1.6756-.1994 2.3475-.5994Z" clip-rule="evenodd"/>
  <path fill="#fff" d="M33 44.0004H17v3h16v-3Z"/>
  <path fill="#fff" d="M36.3058 16.9941h-4.0719v15.0063h2.8832V21.2923l-.0432-.7075 3.4513 11.4156h2.1225l3.4944-11.4906-.0432.7825v10.7081h2.8938V16.9941h-4.1375l-2.98 9.8507-.225 1.2862-.2575-1.2862-3.0869-9.8507Z"/>
</svg>
