<svg xmlns="http://www.w3.org/2000/svg" width="64" height="64" fill="none" viewBox="0 0 64 64">
  <defs>
    <linearGradient id="a" x1="59.9325" x2="1.33687" y1="59.6756" y2="1.07937" gradientUnits="userSpaceOnUse">
      <stop offset=".29" stop-color="#6B57FF"/>
      <stop offset=".89" stop-color="#07C3F2"/>
    </linearGradient>
    <linearGradient id="b" x1="7.67063" x2="61.1256" y1="64.3905" y2="39.6074" gradientUnits="userSpaceOnUse">
      <stop offset=".3" stop-color="#FF45ED"/>
      <stop offset=".84" stop-color="#6B57FF"/>
    </linearGradient>
  </defs>
  <path fill="url(#a)" d="M0 4.125v34.1275c0 1.6581.993125 3.155 2.52063 3.8L39.9419 57.85c.5181.2187 1.0756.3294 1.6381.3244l18.3287-.15c2.265-.0188 4.0913-1.86 4.0913-4.125V36.2337c0-.8056-.2356-1.5931-.6781-2.2662L42.2131 1.85938C41.45.69875 40.155 0 38.7663 0H4.125C1.84687 0 0 1.84687 0 4.125Z"/>
  <path fill="url(#b)" d="M6 49.0131v10.8618c0 2.2781 1.84687 4.125 4.125 4.125h12.5656c.2 0 .4-.0144.5981-.0437l37.1851-5.4482c2.0256-.2968 3.5268-2.0343 3.5268-4.0812V39.0293c0-2.2788-1.8475-4.1256-4.1262-4.125l-18.5044.0044c-.4256 0-.8488.0662-1.2538.1956L8.87062 45.083c-1.70937.5463-2.86999 2.135-2.86999 3.9294L6 49.0131Z"/>
  <path fill="#FF45ED" d="M6 47.55v12.2588c0 2.3037 1.88688 4.1612 4.1906 4.1243L20.9994 64c1.1812-.0188 2.5318-.7862 3.3006-1.6831l32.7069-38.1581c.6406-.7475.9931-1.7001.9931-2.6844V10.125C58 7.84687 56.1531 6 53.875 6H42.8719c-1.1894 0-2.3213.51375-3.1044 1.40875L7.02063 44.8338C6.3625 45.5856 6 46.5506 6 47.55Z"/>
  <path fill="#000" d="M52 12H12v40h40V12Z"/>
  <path fill="#fff" fill-rule="evenodd" d="M17.0127 16.9941h5.7131c1.4219 0 2.6956.3213 3.8213.9644 1.1256.6431 2.0062 1.5344 2.6418 2.6744.6363 1.14.9538 2.4275.9538 3.8644 0 1.4368-.3181 2.7243-.9538 3.8643-.6362 1.14-1.5168 2.0313-2.6418 2.6744-1.1257.6431-2.3994.9644-3.8213.9644h-5.7131V16.9941Zm8.0281 11.8763c.6719-.4 1.19-.9738 1.5544-1.7206.3644-.7469.5469-1.6307.5469-2.6532s-.1825-1.9062-.5469-2.6531c-.3644-.7469-.8825-1.32-1.5544-1.7206-.6719-.4-1.4544-.6-2.3475-.6h-2.755v9.9469h2.755c.8931 0 1.6756-.1994 2.3475-.5994Z" clip-rule="evenodd"/>
  <path fill="#fff" d="M33 44.0004H17v3h16v-3Z"/>
  <path fill="#fff" fill-rule="evenodd" d="M39.1464 16.9941h-6.4418l-.0007 15.0069h2.9263v-5.67h3.43c1.0794 0 2.0225-.195 2.83-.5844.8075-.39 1.4312-.9381 1.8706-1.6456.4394-.7075.6594-1.5437.6594-2.4656 0-.9219-.2163-1.7325-.6488-2.4331-.4325-.7007-1.0468-1.2438-1.8437-1.6294-.7969-.3856-1.7238-.5788-2.7813-.5788Zm1.9507 5.8475c-.2.3394-.4838.6-.8519.7825-.3681.1819-.7988.2738-1.2919.2738h-3.3231v-4.47h3.3231c.4931 0 .9238.0906 1.2919.2731.3675.1825.6519.4394.8519.7719.2.3325.3.7162.3 1.1737s-.1.8557-.3 1.195Z" clip-rule="evenodd"/>
</svg>
