<svg xmlns="http://www.w3.org/2000/svg" width="64" height="64" fill="none" viewBox="0 0 64 64">
  <defs>
    <linearGradient id="a" x1="-.390625" x2="24.3925" y1="7.67063" y2="61.1256" gradientUnits="userSpaceOnUse">
      <stop offset=".18" stop-color="#6B57FF"/>
      <stop offset=".54" stop-color="#FF2358"/>
    </linearGradient>
    <linearGradient id="b" x1="4.32509" x2="62.9207" y1="59.9325" y2="1.33625" gradientUnits="userSpaceOnUse">
      <stop offset=".12" stop-color="#FF2358"/>
      <stop offset=".92" stop-color="#FF45ED"/>
    </linearGradient>
  </defs>
  <path fill="#6B57FF" d="M16.4501 6H4.19132C1.88757 6 .03007 7.88688.066946 10.1906l.17625 11.0431C.261946 22.415.786321 23.5312 1.6832 24.3l38.1587 32.7069c.7475.6406 1.7.9931 2.6844.9931h11.3494c2.2781 0 4.125-1.8469 4.125-4.125V42.8719c0-1.1894-.5138-2.3213-1.4088-3.1044L19.1663 7.02063C18.4144 6.3625 17.4494 6 16.4501 6Z"/>
  <path fill="url(#a)" d="M14.9875 6H4.125C1.84687 6 0 7.84687 0 10.125v12.5656c0 .2.014375.4.04375.5981l5.44813 37.1851c.29687 2.0256 2.03437 3.5268 4.08124 3.5268H24.9706c2.2788 0 4.1256-1.8475 4.125-4.1262L29.0912 41.37c0-.4256-.0662-.8488-.1956-1.2538L18.9169 8.87062c-.5463-1.70937-2.135-2.86999-3.9294-2.86999V6Z"/>
  <path fill="url(#b)" d="M59.8757 0H25.7482c-1.6581 0-3.155.993125-3.8 2.52063L6.15071 39.9419c-.21875.5181-.32938 1.0756-.32438 1.6381l.15 18.3287C5.99508 62.1737 7.83633 64 10.1013 64H27.767c.8056 0 1.5931-.2356 2.2662-.6781l32.1094-21.1088c1.1606-.7625 1.8587-2.0581 1.8587-3.4468V4.125C64.0007 1.84687 62.1538 0 59.8757 0Z"/>
  <path fill="#000" d="M52 12H12v40h40V12Z"/>
  <path fill="#fff" fill-rule="evenodd" d="M16.9971 16.9941h5.7131c1.4219 0 2.6956.3213 3.8212.9644 1.1257.6431 2.0063 1.5344 2.6425 2.6744.6357 1.14.9538 2.4275.9538 3.8644 0 1.4368-.3181 2.7243-.9538 3.8643-.6362 1.14-1.5168 2.0313-2.6425 2.6744-1.1256.6431-2.3993.9644-3.8212.9644h-5.7131V16.9941Zm8.0281 11.8763c.6719-.4 1.19-.9738 1.5544-1.7206.3643-.7469.5468-1.6307.5468-2.6532s-.1825-1.9062-.5468-2.6531c-.3644-.7469-.8825-1.32-1.5544-1.7206-.6719-.4-1.4544-.6-2.3475-.6h-2.755v9.9469h2.755c.8931 0 1.6756-.1994 2.3475-.5994Z" clip-rule="evenodd"/>
  <path fill="#fff" d="M33 44.0004H17v3h16v-3Z"/>
  <path fill="#fff" d="M43.1714 16.9941H31.1346l-.0007 2.6369h4.5663v12.3694h2.9262V19.631h4.545v-2.6369Z"/>
</svg>
