<svg xmlns="http://www.w3.org/2000/svg" width="64" height="64" fill="none" viewBox="0 0 64 64">
  <defs>
    <linearGradient id="a" x1="59.6763" x2="1.08" y1="4.0675" y2="62.6638" gradientUnits="userSpaceOnUse">
      <stop offset=".25" stop-color="#7256FF"/>
      <stop offset=".73" stop-color="#00C4F4"/>
    </linearGradient>
    <linearGradient id="b" x1="64.3912" x2="39.6074" y1="56.3294" y2="2.87437" gradientUnits="userSpaceOnUse">
      <stop offset=".3" stop-color="#F0EB18"/>
      <stop offset=".58" stop-color="#7256FF"/>
    </linearGradient>
  </defs>
  <path fill="url(#a)" d="M4.125 64h34.1275c1.6581 0 3.155-.9931 3.8-2.5206L57.85 24.0581c.2187-.5181.3294-1.0756.3244-1.6381l-.15-18.32875C58.0063 1.82625 56.165 0 53.9 0H36.2344c-.8057 0-1.5932.235625-2.2663.678125L1.85938 21.7869C.69875 22.55 0 23.845 0 25.2337V59.875C0 62.1531 1.84687 64 4.125 64Z"/>
  <path fill="url(#b)" d="M49.0131 58h10.8618c2.2781 0 4.125-1.8469 4.125-4.125V41.3094c0-.2-.0144-.4-.0437-.5981L58.508 3.52688C58.2118 1.50125 56.4743 0 54.4268 0H39.0293c-2.2788 0-4.1256 1.8475-4.125 4.12625l.0044 18.50435c0 .4256.0662.8488.1956 1.2538L45.083 55.13c.5463 1.7094 2.135 2.87 3.9294 2.87h.0007Z"/>
  <path fill="#F0EB18" d="M47.55 58h12.2588c2.3037 0 4.1612-1.8869 4.1243-4.1906L64 43c-.0188-1.1812-.7862-2.5312-1.6831-3.3L24.1588 6.99312C23.4113 6.3525 22.4587 6 21.4744 6H10.125C7.84687 6 6 7.84687 6 10.125v11.0031c0 1.1894.51375 2.3213 1.40875 3.1044L44.8338 56.9794C45.5856 57.6375 46.5506 58 47.55 58Z"/>
  <path fill="#000" d="M52 12H12v40h40V12Z"/>
  <path fill="#fff" fill-rule="evenodd" d="M43.3874 18.9009c-.4069-.6006-.9769-1.0681-1.7094-1.4043-.7331-.3357-1.5668-.5044-2.5031-.5044h-6.5168v15.0062h6.6456c.9862 0 1.865-.1768 2.6368-.5306.7719-.3537 1.3719-.845 1.8007-1.4737.4287-.6288.6431-1.3469.6431-2.1544 0-.7431-.1713-1.4075-.5144-1.9938-.3431-.5862-.8219-1.0418-1.4362-1.3668-.2558-.1353-.5264-.2425-.812-.3215.2163-.0644.4228-.1464.6195-.246.5575-.2819.9893-.6807 1.2968-1.195.3069-.5144.4607-1.1075.4607-1.7794 0-.7569-.2038-1.4363-.6113-2.0363Zm-2.6256 3.4188c-.1863.3075-.4488.5431-.7881.7075-.3394.165-.7307.2469-1.1738.2469h-3.2906v-3.9982h3.2906c.4431 0 .8344.0819 1.1738.2463.3393.1644.6025.395.7881.6912.1856.2963.2788.6444.2788 1.045 0 .4007-.0932.7538-.2788 1.0613Zm-1.8331 7.3962h-3.4194v-4.2243h3.4194c.4856 0 .9143.0893 1.2862.2681.3719.1787.6594.4325.8631.7612.2038.3288.3057.6932.3057 1.115 0 .4219-.1019.7882-.3057 1.0988-.2037.3112-.4918.5525-.8631.7237-.3719.1719-.8006.2575-1.2862.2575Z" clip-rule="evenodd"/>
  <path fill="#fff" d="M16.998 16.9928h2.9263v6.0344h6.4419v-6.0344h2.9262v15.0063h-2.9262v-6.335h-6.4419v6.335H16.998V16.9928Z"/>
  <path fill="#fff" d="M33.0005 43.9991h-16v3h16v-3Z"/>
</svg>
