<svg xmlns="http://www.w3.org/2000/svg" width="64" height="64" fill="none" viewBox="0 0 64 64">
  <defs>
    <linearGradient id="a" x1="4.32412" x2="62.9198" y1="59.9325" y2="1.33686" gradientUnits="userSpaceOnUse">
      <stop offset=".29" stop-color="#FF45ED"/>
      <stop offset=".7" stop-color="#FF0A67"/>
    </linearGradient>
    <linearGradient id="b" x1="-.390622" x2="24.3929" y1="7.67061" y2="61.1251" gradientUnits="userSpaceOnUse">
      <stop offset=".3" stop-color="#FDB60D"/>
      <stop offset=".54" stop-color="#FF45ED"/>
    </linearGradient>
  </defs>
  <path fill="url(#a)" d="M59.8748 0H25.7477c-1.6581 0-3.155.993115-3.8 2.5206L6.14973 39.9415c-.21875.5181-.32937 1.0756-.32437 1.6381l.15 18.3286c.01875 2.2649 1.85998 4.0912 4.12494 4.0912h17.6655c.8056 0 1.5931-.2356 2.2662-.6781l32.1091-21.1086c1.1606-.7625 1.8587-2.0581 1.8587-3.4468V4.12496C63.9998 1.84686 62.1529 0 59.8748 0Z"/>
  <path fill="url(#b)" d="M14.9874 6H4.12496C1.84686 6 0 7.84686 0 10.125v12.5655c0 .2.014375.4.04375.5981l5.44807 37.1846c.29687 2.0256 2.03436 3.5269 4.08121 3.5269H24.9704c2.2787 0 4.1256-1.8475 4.1249-4.1263l-.0043-18.5041c0-.4257-.0663-.8488-.1957-1.2538L18.9167 8.8706c-.5463-1.70936-2.135-2.86997-3.9293-2.86997V6Z"/>
  <path fill="#FDB60D" d="M16.4498 6H4.19121C1.88748 6 .03 7.88686.066874 10.1906L0 20.9999c.01875 1.1812.786242 2.5306 1.68311 3.2993L39.8415 57.0057c.7475.6407 1.7.9932 2.6843.9932h11.3493c2.2781 0 4.125-1.8469 4.125-4.125v-11.003c0-1.1894-.5138-2.3212-1.4088-3.1044L19.1661 7.02062C18.4142 6.3625 17.4492 6 16.4498 6Z"/>
  <path fill="#000" d="M52.0002 12H12v39.9996h39.9996V12h.0006Z"/>
  <path fill="#fff" fill-rule="evenodd" d="M17.0181 16.9941h6.4418c1.0506 0 1.9756.1932 2.7762.5788.8.3856 1.4162.9287 1.8487 1.6293.4325.7007.6488 1.5113.6488 2.4331 0 .9219-.22 1.7488-.6594 2.46-.4394.7113-1.065 1.2613-1.8756 1.6506-.2231.1071-.4559.1995-.6987.2771l3.5555 5.9779h-3.3549l-3.2351-5.6706h-2.5211v5.6699h-2.9262V16.9941Zm7.5405 6.63c.3681-.1825.6519-.4431.8519-.7825.2-.3394.3-.7344.3-1.1844 0-.45-.1-.8518-.3-1.1843-.2-.3325-.4844-.5894-.8519-.7719-.3681-.1825-.7987-.2731-1.2918-.2731h-3.3231v4.4699h3.3231c.4931 0 .9237-.0918 1.2918-.2737Z" clip-rule="evenodd"/>
  <path fill="#fff" d="M33.0057 44H17.0059v3h15.9998v-3Z"/>
  <path fill="#fff" fill-rule="evenodd" d="M42.8178 28.174v-1.9081l-2.2126.0039.7579-3.5369 2.5266-.0044v-1.9294l-2.113.0037.8161-3.8087h-2.1331l-.8169 3.8124-3.1949.0056.8181-3.818h-2.1331l-.8189 3.8217-2.6223.0046v1.9293l2.2087-.0038-.7579 3.5369-2.5227.0044v1.9081l2.1136-.0037-.8161 3.8086h2.1331l.8169-3.8123 3.1949-.0056-.8181 3.8179h2.1331l.8189-3.8216 2.6217-.0046Zm-7.5414-1.8949 3.1949-.0056.7579-3.5369-3.1949.0055-.7579 3.537Z" clip-rule="evenodd"/>
</svg>
