<svg xmlns="http://www.w3.org/2000/svg" width="64" height="64" fill="none" viewBox="0 0 64 64">
  <defs>
    <linearGradient id="a" x1="4.0675" x2="62.6637" y1="4.32313" y2="62.9194" gradientUnits="userSpaceOnUse">
      <stop offset=".25" stop-color="#007EFF"/>
      <stop offset=".73" stop-color="#FF0A67"/>
    </linearGradient>
    <linearGradient id="b" x1="56.3294" x2="2.87438" y1="-.390623" y2="24.3925" gradientUnits="userSpaceOnUse">
      <stop offset=".3" stop-color="#FFB700"/>
      <stop offset=".58" stop-color="#007EFF"/>
    </linearGradient>
  </defs>
  <path fill="url(#a)" d="M64 59.8737V25.7463c0-1.6582-.9931-3.155-2.5206-3.8L24.0581 6.14876c-.5181-.21875-1.0756-.32938-1.6381-.32438l-18.32875.15C1.82625 5.99251 0 7.83376 0 10.0988v17.6656c0 .8056.235625 1.5931.678125 2.2662L21.7869 62.14c.7625 1.1606 2.0581 1.8587 3.4468 1.8587H59.875c2.2781 0 4.125-1.8468 4.125-4.125Z"/>
  <path fill="url(#b)" d="M58 14.9875V4.125C58 1.84687 56.1531 0 53.875 0H41.3094c-.2 0-.4.014375-.5981.04375L3.52688 5.49187C1.50125 5.78875 0 7.52625 0 9.57312V24.9706c0 2.2788 1.8475 4.1256 4.12625 4.125l18.50435-.0044c.4256 0 .8488-.0662 1.2538-.1956L55.13 18.9169c1.7094-.5463 2.87-2.135 2.87-3.9294Z"/>
  <path fill="#FFB700" d="M58 16.45V4.19125C58 1.8875 56.1131.03 53.8094.066875L43 0c-1.1812.01875-2.5312.78625-3.3 1.68312L6.99312 39.8412C6.3525 40.5887 6 41.5412 6 42.5256V53.875C6 56.1531 7.84687 58 10.125 58h11.0031c1.1894 0 2.3213-.5138 3.1044-1.4088l32.7469-37.425C57.6375 18.4144 58 17.4494 58 16.45Z"/>
  <path fill="#000" d="M52 12H12v40h40V12Z"/>
  <path fill="#fff" fill-rule="evenodd" d="M16.9971 16.9922h6.4418c1.0507 0 1.9757.1931 2.7763.5787.8.3857 1.4162.9288 1.8487 1.6294.4325.7006.6488 1.5113.6488 2.4331 0 .9219-.22 1.7488-.6594 2.46-.4394.7113-1.065 1.2613-1.8756 1.6507-.2231.107-.456.1994-.6987.2771l3.5556 5.9779h-3.355l-3.2351-5.6707h-2.5212v5.67h-2.9262V16.9922Zm7.5406 6.6294c.3681-.1825.6519-.4432.8519-.7825.2-.3394.3-.7344.3-1.1844 0-.45-.1-.8519-.3-1.1844-.2-.3325-.4844-.5894-.8519-.7719-.3681-.1825-.7988-.2731-1.2919-.2731h-3.3231v4.47h3.3231c.4931 0 .9238-.0919 1.2919-.2737Z" clip-rule="evenodd"/>
  <path fill="#fff" d="M33 43.9985H17v3h16v-3Z"/>
  <path fill="#fff" d="M41.7569 16.9922h-10.14v15.0062h2.9262v-5.8631h6.785v-2.6475h-6.785v-3.8481h7.2138v-2.6475Z"/>
</svg>
