<svg xmlns="http://www.w3.org/2000/svg" width="64" height="64" fill="none" viewBox="0 0 64 64">
  <defs>
    <linearGradient id="a" x1="7.67061" x2="61.125" y1="64.3921" y2="39.6093" gradientUnits="userSpaceOnUse">
      <stop offset=".1" stop-color="#3BEA62"/>
      <stop offset=".59" stop-color="#6B57FF"/>
    </linearGradient>
    <linearGradient id="b" x1="59.9324" x2="1.33688" y1="59.6755" y2="1.07996" gradientUnits="userSpaceOnUse">
      <stop offset=".26" stop-color="#6B57FF"/>
      <stop offset=".65" stop-color="#07C3F2"/>
    </linearGradient>
  </defs>
  <path fill="#3BEA62" d="M6 47.5501v12.2586c0 2.3038 1.8869 4.1612 4.1906 4.1244l11.043-.1763c1.1812-.0187 2.2975-.5431 3.0662-1.44l32.7065-38.1583c.6406-.7475.9931-1.7.9931-2.6843V10.125c0-2.27815-1.8469-4.125-4.125-4.125H42.8715c-1.1894 0-2.3213.51375-3.1044 1.40874L7.02062 44.8333C6.3625 45.5851 6 46.5501 6 47.5495v.0006Z"/>
  <path fill="url(#a)" d="M6 49.0148v10.8618c0 2.2781 1.84685 4.1249 4.125 4.1249h12.5655c.2 0 .3999-.0144.5981-.0437l37.1845-5.4481C62.4987 58.2128 64 56.4754 64 54.4285V39.0312c0-2.2787-1.8475-4.1256-4.1262-4.1249l-18.5042.0043c-.4256 0-.8487.0663-1.2537.1956L8.87063 45.0849c-1.70935.5462-2.86996 2.135-2.86996 3.9293L6 49.0148Z"/>
  <path fill="url(#b)" d="M0 4.12558V38.2527c0 1.6581.993118 3.1549 2.5206 3.7999l37.4208 15.7973c.5181.2188 1.0756.3294 1.6381.3244l18.3286-.15c2.2649-.0187 4.0912-1.86 4.0912-4.1249V36.2339c0-.8056-.2356-1.5931-.6781-2.2662L42.2126 1.85873C41.4502.698116 40.1546 0 38.7658 0H4.12495C1.84685 0 0 1.84685 0 4.12495v.00063Z"/>
  <path fill="#000" d="M51.9995 12H12v39.9995h39.9995V12Z"/>
  <path fill="#fff" d="M30.0439 28.4594c.6644 1.1825 1.5788 2.1118 2.7438 2.7868v-.0025c1.165.6756 2.4656 1.0131 3.9018 1.0131 1.215 0 2.3294-.225 3.3444-.675 1.0143-.4499 1.8599-1.0806 2.5349-1.8918.675-.8112 1.1269-1.7419 1.3557-2.7925h-3.0657c-.2.5431-.4981 1.0207-.8949 1.4313-.3963.4112-.8732.7275-1.4307.9487-.5575.2219-1.165.3325-1.8225.3325-.8862 0-1.6868-.2212-2.4012-.6644-.7143-.4431-1.2737-1.0518-1.6775-1.8274-.4037-.775-.6055-1.6488-.6055-2.6206 0-.9719.2018-1.845.6055-2.6206.4038-.775.9632-1.3844 1.6775-1.8275.715-.4431 1.515-.6644 2.4012-.6644.6575 0 1.265.1113 1.8225.3325.5569.2219 1.0344.5381 1.4307.9488.3968.4112.6949.8881.8949 1.4312h3.0657c-.2288-1.0506-.6807-1.9812-1.3557-2.7925-.6756-.8112-1.5206-1.4418-2.5349-1.8918-1.015-.45-2.1294-.675-3.3444-.675-1.4369 0-2.7375.3381-3.9018 1.0131-1.1644.675-2.0794 1.6043-2.7438 2.7868-.6643 1.1825-.9968 2.5025-.9968 3.9606s.3325 2.7781.9968 3.9606Z"/>
  <path fill="#fff" d="M16.0016 16.9951h12.0367v2.6369h-4.5449v12.3692h-2.9263V19.632H16.001l.0006-2.6369Z"/>
  <path fill="#fff" d="M32.9998 44.001H17v2.9999h15.9998V44.001Z"/>
</svg>
